<svg xmlns="http://www.w3.org/2000/svg" viewBox="0 0 32 32">
  <!-- Fondo cuadrado con textura de cemento -->
  <rect width="32" height="32" fill="#e0ddd7"/>
  
  <!-- Pétalos de la flor en verde lima -->
  <!-- Pétalo superior -->
  <path d="M13 4 L16 2 L19 4 L18 10 L14 10 Z" fill="#a4bf39"/>
  <path d="M14 8 L18 8 L17 12 L15 12 Z" fill="#a4bf39"/>
  
  <!-- Pétalo inferior -->
  <path d="M13 28 L16 30 L19 28 L18 22 L14 22 Z" fill="#a4bf39"/>
  <path d="M14 24 L18 24 L17 20 L15 20 Z" fill="#a4bf39"/>
  
  <!-- Pétalo izquierdo -->
  <path d="M4 13 L2 16 L4 19 L10 18 L10 14 Z" fill="#a4bf39"/>
  <path d="M8 14 L8 18 L12 17 L12 15 Z" fill="#a4bf39"/>
  
  <!-- Pétalo derecho -->
  <path d="M28 13 L30 16 L28 19 L22 18 L22 14 Z" fill="#a4bf39"/>
  <path d="M24 14 L24 18 L20 17 L20 15 Z" fill="#a4bf39"/>
  
  <!-- Pétalo superior izquierdo -->
  <path d="M7 7 L6 4 L3 3 L8 11 L12 9 Z" fill="#a4bf39"/>
  <path d="M9 10 L11 8 L14 11 L11 13 Z" fill="#a4bf39"/>
  
  <!-- Pétalo superior derecho -->
  <path d="M25 7 L26 4 L29 3 L24 11 L20 9 Z" fill="#a4bf39"/>
  <path d="M23 10 L21 8 L18 11 L21 13 Z" fill="#a4bf39"/>
  
  <!-- Pétalo inferior izquierdo -->
  <path d="M7 25 L6 28 L3 29 L8 21 L12 23 Z" fill="#a4bf39"/>
  <path d="M9 22 L11 24 L14 21 L11 19 Z" fill="#a4bf39"/>
  
  <!-- Pétalo inferior derecho -->
  <path d="M25 25 L26 28 L29 29 L24 21 L20 23 Z" fill="#a4bf39"/>
  <path d="M23 22 L21 24 L18 21 L21 19 Z" fill="#a4bf39"/>
  
  <!-- Detalles en azul claro (como los puntos en el mosaico) -->
  <circle cx="16" cy="9" r="1.5" fill="#b5d8d6"/>
  <circle cx="16" cy="23" r="1.5" fill="#b5d8d6"/>
  <circle cx="9" cy="16" r="1.5" fill="#b5d8d6"/>
  <circle cx="23" cy="16" r="1.5" fill="#b5d8d6"/>
  
  <!-- Centro de la flor -->
  <circle cx="16" cy="16" r="4" fill="#a4bf39"/>
  <circle cx="16" cy="16" r="2" fill="#b5d8d6"/>
  
  <!-- Piezas negras del mosaico (espacios) -->
  <rect x="1" y="1" width="2" height="2" fill="#333"/>
  <rect x="29" y="1" width="2" height="2" fill="#333"/>
  <rect x="1" y="29" width="2" height="2" fill="#333"/>
  <rect x="29" y="29" width="2" height="2" fill="#333"/>
  <rect x="6" y="15" width="2" height="2" fill="#333"/>
  <rect x="24" y="15" width="2" height="2" fill="#333"/>
  <rect x="15" y="6" width="2" height="2" fill="#333"/>
  <rect x="15" y="24" width="2" height="2" fill="#333"/>
</svg>